# xmcd
# 
# Track frame offsets:
#     150
#     20250
#     32247
#     54813
#     73679
#     94270
#     130778
#     158182
#     181664
#     198338
#     229089
# 
# Disc length: 3253
# 
# Revision: 7
# Processed by: cddbd v1.5.2PL0 Copyright (c) Steve Scherf et al.
# Submitted via: fre:ac v1.0.17
# 
DISCID=860cb30b
DTITLE=Beth Hart And Joe Bonamassa - Don't Explain
DYEAR=2011
DGENRE=Blues
TTITLE0=Sinner's Prayer
TTITLE1=Chocolate Jesus
TTITLE2=Your Heart Is As Black As Night
TTITLE3=For My Friends
TTITLE4=Don't Explain
TTITLE5=I'd Rather Go Blind
TTITLE6=Something's Got A Hold On Me
TTITLE7=I'll Take Care Of You
TTITLE8=Well, Well
TTITLE9=Ain't No Way
TTITLE10=I'll Take Care Of You (Radio Edit)
EXTD=YEAR: 2011
EXTT0=
EXTT1=
EXTT2=
EXTT3=
EXTT4=
EXTT5=
EXTT6=
EXTT7=
EXTT8=
EXTT9=
EXTT10=
PLAYORDER=
